<?xml version="1.0" encoding="utf-8"?>
<!-- Generator: Adobe Illustrator 21.1.0, SVG Export Plug-In . SVG Version: 6.00 Build 0)  -->
<svg version="1.1" id="Layer_1" xmlns="http://www.w3.org/2000/svg" xmlns:xlink="http://www.w3.org/1999/xlink" x="0px" y="0px"
	 viewBox="0 0 63.9 68.4" style="enable-background:new 0 0 63.9 68.4;" xml:space="preserve">
<style type="text/css">
	.st0{fill:#414042;}
</style>
<path class="st0" d="M59.5,41c-0.9-0.5-1.5-1.4-1.8-2.4c-0.3-0.9-0.3-2-1.1-2.6c-0.3-0.3-0.8-0.4-1.2-0.5c-0.5-0.2-0.4-0.5-0.5-1
	c-0.2-0.9-0.7-1.7-1.4-2.3c0.9-1.4,1.8-2.9,0.8-4.6c-0.6-1-1.8-1.4-2.4-2.4c-0.3-0.5-0.5-1.1-0.6-1.8c0,0,0,0,0,0
	c1-0.5,1.5-1.4,1.7-2.5c0.1-0.6,0-1.2,0-1.7c0-0.9,0.1-1.5,0.4-2.3c0.4-1.1,0.5-2.3,0-3.5c-0.2-0.5-0.8-1.2-0.7-1.8
	c0.1-0.6,0.5-1,0.6-1.6c0-0.6-0.4-1-1-0.8c-0.7,0.2-1.4,0.4-2.2,0.3c-0.6-0.1-1.1-0.4-1.6-0.5c-0.6-0.1-1.1,0.1-1.5,0.4
	c-0.5,0.3-0.6,0.7-1.3,0.5c-1.9-0.7-4.1-0.3-5.5,1.3c-0.5-0.4-0.9-0.8-1.4-1.1c-1-0.8-2-1.9-3.3-2.2c-1.2-0.3-2.5,0-3.6,0.6
	c-0.7,0.4-1.4,0.8-2.1,1.1c-0.1-1-0.9-1.7-1.8-2c-0.6-0.2-1.3-0.2-1.9-0.3c-0.7,0-1.2-0.2-1.8-0.5C22.9,6.2,22,6,20.8,6.4
	c-1.2,0.3-2.4,0.3-3.2-0.7C16.9,5,16,5.6,16.2,6.4c0.3,1.2-0.2,2.2-1,3.1c-0.8,0.9-1,1.7-0.8,2.9c0.1,0.7,0.1,1.2-0.1,1.8
	c-0.2,0.5-0.5,1-0.6,1.6c-0.2,1.1-0.1,2.2,0.4,3.3c0.1,0.2,0.2,0.3,0.4,0.4c-0.2,0.3-0.5,0.6-0.8,0.8c-0.5,0.4-1.1,0.6-1.6,0.9
	c-0.9,0.6-1.6,1.5-1.9,2.6c-0.3,1.2-0.3,2.4-0.2,3.6c0.1,1.3,0.1,2.5,0.2,3.8c0,0.1,0,0.2,0,0.3c-0.8,0.4-1.7,0.9-2.3,1.7
	c-0.3,0.4-0.4,0.9-0.5,1.4c-0.1,0.6-0.3,0.9-0.7,1.3c-0.8,0.8-1.1,1.6-1.3,2.7c-0.2,1.1-0.7,2-1.8,2.5c-0.6,0.3-0.6,1.1,0,1.4
	c0.9,0.4,2.4,0.1,2.9,1.1c0.3,0.5,0.5,0.9,1,1.1c0.6,0.3,1.4,0.2,2,0.2c0.7,0,1.5,0,2.2,0.5c0.5,0.3,0.8,0.8,1.3,1.2
	c1.2,0.8,2.5,0.5,3.7,0c0,0,0.1,0,0.1-0.1c0.3,0.8,0.4,1.7,1.4,2.1c0.6,0.3,1.3,0.2,1.9,0.3c0.7,0.2,1.2,0.5,1.8,0.9
	c0.3,0.2,0.5,0.4,0.7,0.6c0,0.1-0.1,0.1-0.1,0.2c-0.5,1.3,0.2,2.5,1.1,3.4c1,0.9,2.4,1.3,2.5,2.8c0,1.4,0.7,2.1,1.9,2.6
	c0.7,0.3,1.3,0.5,1.8,1.1c0.5,0.5,1,1.2,1.4,1.8c0.5,0.7,1.3,0.1,1.3-0.5c0-1,2-1.4,2.7-1.9c0.4-0.3,0.7-0.6,1-1
	c0.3-0.5,0.4-1.1,0.7-1.6c0.3-0.5,0.9-0.7,1.3-1c0.4-0.3,0.8-0.7,1.1-1.1c0.7-0.8,1.1-1.8,1.2-2.8c1-0.3,2-0.6,2.9-0.8
	c1-0.3,2.1-0.5,2.8-1.4c0.4-0.5,0.4-1,0.6-1.5c0.1-0.4,0.3-0.7,0.5-1c0.9,0.6,2,0.7,3,0.5c0.6-0.2,1.1-0.4,1.5-0.8
	c0.4-0.4,0.7-0.9,1.2-1.2c0.5-0.3,1.1,0.1,1.6-0.1c0.5-0.2,0.9-0.6,1.3-1c0.4-0.5,0.6-1.1,1.1-1.5c0.5-0.5,1.2-0.8,1.9-0.9
	C60.1,42.3,60.1,41.4,59.5,41z M51.9,27.3c0.9,0.7,1.5,1.3,1.1,2.5c-0.3,1.1-1.1,1.9-1.7,2.9c-0.6,1.1-0.7,2.1-1,3.3
	c-0.3,1-0.9,1.8-1.8,2.2c-1.2,0.6-2.4,0.4-3.6,0.1c-1.2-0.3-2.4-0.6-3.6-0.9c0.4-0.9,0.6-1.9,0.7-2.9c0.1-0.4,0.1-0.7,0.1-1.1
	c0.5,0,0.9-0.1,1.4-0.2c0.2,0,0.5-0.2,0.6-0.4c0.1-0.2,0.1-0.5,0.3-0.7c0.4-0.4,1-0.4,1.5-0.5c0.4,0,1.4-0.1,1.4-0.6
	c0-0.3-0.1-0.5-0.2-0.8c-0.1-0.2-0.3-0.4-0.5-0.6c-0.4-0.4-0.9-0.6-1.4-0.7c-0.3-0.1-0.6-0.1-0.7-0.4c-0.1-0.2,0-0.5,0.2-0.6
	c0.4-0.3,0.9-0.4,1.2-0.9c0.3-0.4,0.1-1-0.3-1.2c-0.4-0.3-1-0.3-1.5-0.4c0.1-0.5,0.1-1.1,0-1.6c-0.1-0.4-0.2-0.8-0.5-1.1
	c0,0,0.1-0.1,0.1-0.1c0.8-1.2,1.7-2.7,1.9-4.2c0,0,0.1,0,0.1,0c1,0.1,2,0.5,2.6,1.3c0.7,0.8,0.9,1.8,1,2.8
	C49.9,24.5,50.2,26.1,51.9,27.3z M38.9,38c-0.9,0.7-2,1.2-3.1,1.6c-0.7,0.3-1.3,0.5-2,0.7c0.1-0.2,0.1-0.4,0.2-0.5
	c0.6-2.2,0.4-4.3-0.1-6.5c0.4-0.2,0.8-0.3,1.2-0.3c0.6,0,1.1,0.2,1.7,0.1c0.9,0,1.5-0.5,2-1.2c0.2-0.3,0.5-0.7,0.9-0.8
	c0.2,0,0.4,0,0.6,0c0,0.1,0.1,0.2,0.1,0.3c0.6,0.9,0.3,2.2,0.2,3.2C40.3,36,40,37.2,38.9,38z M40.6,29.8c-0.7-0.1-1.4-0.2-2,0.2
	c-0.6,0.4-0.9,0.9-1.3,1.4c-0.6,0.5-1.6,0.1-2.4,0.1c-0.5,0-0.9,0.1-1.3,0.3c0-0.1,0-0.2-0.1-0.3c0.7-0.3,1.2-1.3,1.7-1.7
	c1-0.9,2.1-1.5,3.3-1.9c1.2-0.4,2.1-1.1,2-2.5c0-0.5-0.2-1.1-0.4-1.6c0.6-0.3,1.8-0.9,2.3-0.2c0.5,0.5,0.3,1.9-0.1,2.5
	c-0.2,0.3-0.5,0.5-0.7,0.9c-0.2,0.4-0.2,0.8-0.2,1.2c0,0.4,0,0.8-0.1,1.2C41.3,29.8,41,29.8,40.6,29.8z M27.7,21.7
	c-0.8,2.8,1.2,4.9,2.8,6.9c0.4,0.5,0.8,1.1,1.1,1.7c0.1,0.3,0.3,0.7,0.5,1c-0.1,0.2-0.1,0.3,0,0.5c0.1,0.2,0.1,0.5,0.2,0.7
	c-1-0.6-2.3-0.8-3.3-1.2c-0.4-0.2-0.9-0.4-1.1-0.9c-0.2-0.5-0.1-1.1-0.2-1.6c-0.2-1.1-1-1.8-1.8-2.5c-0.8-0.8-1.8-2-1.4-3.2
	c0.2-0.5,0.6-0.9,1-1.3c0.4-0.5,0.6-1.1,0.8-1.7c0.3-1,0.6-2.4,1.6-2.9c1.1-0.6,2.1,0.8,2.3,1.7c0.1,0.2,0.2,0.4,0.3,0.5
	c-0.9,0.5-1.7,1.1-2.5,1.7C27.8,21.2,27.7,21.5,27.7,21.7z M26.1,29c0.1,0.5,0,1.1,0.2,1.6c0.1,0.4,0.4,0.7,0.7,1
	c0.7,0.7,1.7,1.1,2.7,1.3c0.6,0.2,1.3,0.3,1.8,0.7c0.6,0.3,1.1,0.7,1.3,1.4c0,0,0,0,0,0c0,0,0,0,0,0c0.2,1.5,0.3,3-0.2,4.5
	c-0.1,0.4-0.3,1-0.6,1.3c0,0-0.1,0.1-0.1,0.1c0,0-0.1,0.1-0.1,0.1c-0.4,0.3-1.2,0-1.7-0.1c-1.2-0.3-2.3-0.9-3.3-1.6
	c-0.9-0.7-1.7-1.7-2.4-2.6c-0.7-0.9-1.4-1.9-1.6-3c-0.3-1.3,0.1-2.7,0.2-4c0.1-1,0.1-2.6,1-3.3c0,0.1,0.1,0.1,0.1,0.2
	C24.8,27.3,25.9,28,26.1,29z M32.9,29.6c-0.2-0.5-0.5-0.9-0.8-1.3c-1.2-1.7-3.7-3.7-3-6.1c0,0,0-0.1,0-0.1c1-0.8,2.1-1.6,3.3-1.9
	c-0.4,0.7-0.7,1.4-0.8,2.2c-0.1,1.1,0.3,2.2,1,3c1.2,1.5,4.1,2.4,5.3,0.4c0.3-0.5,0.6-1.1,0.7-1.8c0.1,0.2,0.1,0.3,0.2,0.5
	c0.1,0.4,0.4,1.2,0.2,1.6c-0.2,0.4-0.9,0.5-1.3,0.6c-0.9,0.3-1.8,0.8-2.6,1.4c-0.8,0.6-1.4,1.3-2,2c0,0,0,0,0,0
	C33,29.8,32.9,29.6,32.9,29.6z M36.1,21c-1-0.1-2,0.7-1.8,1.8c0.2,1.1,1.3,1.8,2.1,2.5c-0.2,0.1-0.4,0.2-0.7,0.1
	c-1.1-0.1-2-0.9-2.4-1.9c-0.4-1.3,0.2-2.3,0.9-3.3c0.1-0.1,0.1-0.1,0.1-0.2c0.1,0,0.2,0,0.2,0.1c0.6,0.2,1.2,0.5,1.8,1
	C36.3,21,36.2,21,36.1,21z M37,22.9c0.2,0.2,0.2,0.6,0.1,0.9c-0.2-0.1-0.3-0.3-0.5-0.4c-0.2-0.2-0.6-0.4-0.7-0.7
	c-0.1-0.3-0.1-0.4,0.3-0.2C36.4,22.6,36.8,22.7,37,22.9z M43.6,11c1,0,2,0.8,3,0.4c0.4-0.2,0.7-0.5,1-0.7c0.5-0.3,1,0,1.6,0.2
	c0.7,0.2,1.4,0.2,2.1,0.1c0,0.1-0.1,0.2-0.1,0.3c-0.1,0.5-0.1,1,0.1,1.4c0.2,0.4,0.5,0.8,0.6,1.3c0.2,0.6,0.3,1.2,0.1,1.8
	c-0.1,0.6-0.4,1.1-0.5,1.6c-0.1,0.6-0.2,1.1-0.1,1.7c0,0.8,0.2,2.1-0.4,2.8c-0.2-1.1-0.6-2.2-1.4-3.1c-0.7-0.8-1.7-1.4-2.8-1.6
	c0.4-0.9,1.1-1.6,2-2c0.9-0.4,0.3-1.8-0.6-1.4c-1.2,0.5-2.2,1.4-2.8,2.6c-0.1-0.2-0.2-0.4-0.3-0.6c-0.7-1.1-2-2-3-2.8
	c-0.3-0.3-0.7-0.6-1-0.8C41.8,11.5,42.6,11,43.6,11z M31,10.5c0.9-0.5,1.9-1.1,2.9-1.3c1.2-0.2,2.1,0.5,3,1.2
	c1.9,1.6,3.8,3.2,5.7,4.8c1,0.8,1.8,1.6,1.7,2.9c-0.1,1.3-0.9,2.5-1.6,3.5c0,0.1-0.1,0.1-0.1,0.2c0,0,0,0,0,0c-1-0.3-2.1,0.1-3,0.5
	c0,0,0,0,0,0c-0.3-0.5-0.6-1-1-1.4c0-0.8,0.4-1.7-0.2-2.3c-0.3-0.3-0.7-0.3-0.9-0.5c-0.2-0.2-0.1-0.4-0.1-0.6c0-0.2,0-0.4-0.1-0.6
	c-0.2-0.3-0.6-0.5-0.9-0.6c-0.5-0.1-1,0.1-1.5,0c-0.2,0-0.4-0.1-0.5-0.2c-0.2-0.1-0.2-0.3-0.3-0.5c-0.1-0.4-0.6-0.5-0.9-0.3
	c-0.4,0.2-0.7,0.5-1,0.8c-0.4,0.3-0.9,0.4-1.4,0.2c-0.8-0.8-1.8-1.2-3-0.7c-1.2,0.5-1.6,1.5-2,2.6c-0.5-0.5-1.2-0.9-1.9-1.2
	c-0.3-1.6,0.3-3.4,1.6-4.4c0.9-0.6,1.9-0.8,3-1.1C29.1,11.4,30,11,31,10.5z M15.6,15c0.3-0.6,0.5-1.1,0.5-1.7c0-0.6-0.2-1.1-0.2-1.6
	c0-1.1,1.2-1.8,1.6-2.7c0.2-0.4,0.3-0.9,0.3-1.3C18.1,7.8,18.5,8,18.9,8c0.5,0.1,1,0.1,1.5,0c0.5-0.1,1.1-0.4,1.6-0.4
	c0.6,0,1.1,0.4,1.7,0.7c0.5,0.3,1.1,0.4,1.7,0.5c0.8,0.1,2.6-0.1,2.7,1c0,0.1,0.1,0.2,0.1,0.3c0,0-0.1,0-0.1,0
	c-1.2,0.3-2.5,0.5-3.5,1.2c-1,0.6-1.8,1.6-2.3,2.6c0,0,0,0,0,0c-0.5-0.9-1-1.8-1.6-2.6c-0.5-0.8-1.7,0.1-1.2,0.9
	c0.4,0.6,0.8,1.3,1.1,1.9c0.3,0.5,0.8,1.1,0.8,1.7c0,0.3,0.2,0.6,0.4,0.7c0,0.1,0,0.1,0,0.2c-0.7-0.2-1.5-0.3-2.2-0.3
	c-1-0.1-2.1,0-3,0.6c-0.6,0.3-1,0.8-1.4,1.3C15,17.1,15.1,16.1,15.6,15z M11.5,25.5c0.1-1.2,0.4-2.5,1.5-3.1c1-0.6,1.9-1.1,2.7-2.1
	c0.6-0.8,1.2-1.9,2.2-2.3c1.1-0.4,2.4-0.1,3.4,0.1c1.1,0.2,2.4,0.5,3.1,1.4c0.1,0.1,0.2,0.2,0.3,0.2c-0.2,0.4-0.4,0.8-0.7,1.2
	c-0.6,0.7-1,1.2-1.2,2c-0.4,0.2-0.7,0.6-1.2,0.7c-0.7,0.2-1.4-0.1-2.1-0.1c-0.6,0-1.2,0.4-1.2,1c0,0.5,0.4,0.8,0.6,1.2
	c0.1,0.2,0.2,0.4,0.3,0.6c0,0.3-0.2,0.5-0.5,0.7c-0.5,0.3-1.2,0.4-1.5,1c-0.1,0.3-0.1,0.6,0.1,0.8c0.2,0.2,0.5,0.2,0.7,0.4
	c0.5,0.3,0.7,0.9,0.9,1.5c0.1,0.3,0.2,0.6,0.5,0.8c0.3,0.1,0.7,0.1,0.9,0.2c0.2,0.1,0.3,0.5,0.3,0.7c0.1,0.2,0.1,0.4,0.3,0.6
	c0,0.1,0,0.2,0,0.2c0,0,0,0-0.1,0c-2.4,0.2-5,1.1-6.5,3.1c-0.1-0.1-0.2-0.2-0.3-0.3c-2.4-1.2-2.6-4.1-2.7-6.4
	C11.6,28.3,11.4,26.9,11.5,25.5z M14.3,45.4c-0.5-0.2-0.8-0.7-1.2-1c-1-0.9-2.1-1-3.4-1.1c-0.5,0-1.4,0.2-1.8-0.3
	c-0.3-0.4-0.4-0.9-0.9-1.2c-0.4-0.3-0.9-0.4-1.4-0.4c0.2-0.3,0.5-0.6,0.7-0.9c0.3-0.5,0.4-0.9,0.5-1.4C7,38.5,7,37.9,7.4,37.4
	c0.3-0.4,0.7-0.6,1-1c0.3-0.4,0.5-0.9,0.6-1.4c0.1-0.6,0.1-1,0.6-1.5c0.3-0.2,0.6-0.4,0.9-0.6c0.4,1.7,1.2,3.2,2.7,4.1
	c-1.2,0.3-2.2,0.8-3.2,1.6c-0.8,0.6,0.1,1.8,0.9,1.2c0.8-0.6,1.6-1,2.6-1.3c-0.4,1.5-0.2,3.1,0.7,4.4c0.6,0.8,1.4,1.4,2.1,2.1
	C15.6,45.4,14.9,45.7,14.3,45.4z M20.6,47.4c-0.5-0.1-1.1,0-1.5-0.2c-0.5-0.2-0.5-1-0.7-1.5c-0.3-0.9-1.1-1.6-1.8-2.3
	c-0.8-0.7-1.5-1.4-1.7-2.5c-0.2-1,0-2,0.4-2.9c1.1-2.3,3.7-3.2,6.1-3.4c0.1,0,0.1,0,0.2,0c0.1,0.2,0.1,0.4,0.2,0.5
	c0.1,0.3,0.3,0.6,0.4,0.9c0,0,0,0.1,0,0.1c0.2,0.6,0.1,1.2-0.1,1.8c-0.2,0.6-0.4,1.2-0.6,1.7c-0.1,0.4-0.4,1.1,0.1,1.3
	c0.4,0.2,0.8-0.1,1.2,0c0.4,0.2,0.5,0.7,0.6,1.1c0.1,0.4,0.2,0.8,0.6,1.1c0.3,0.3,0.8,0.3,1.1,0.1c0.4-0.2,0.7-0.6,1-0.8
	c0.5-0.3,1-0.2,1.6-0.1c0.5,0.1,1,0.1,1.5-0.1c0,0,0.1,0,0.1,0c0.4,0.1,1,0.3,1.5,0.4c-0.7,2.1-0.5,4.3,0.4,6.1
	c-0.1,0-0.1,0.1-0.2,0.2c-1.1,1.5-3.2,2.3-5,1.6C24,49.9,22.7,47.9,20.6,47.4z M37.8,54.9c-0.5,0.4-1,0.6-1.4,1
	c-0.4,0.4-0.7,0.8-0.9,1.4c-0.2,0.6-0.4,1.1-0.9,1.4c-0.5,0.3-1,0.5-1.5,0.7c-0.5,0.3-0.9,0.6-1.2,1c-0.5-0.7-1.1-1.3-1.8-1.7
	c-0.5-0.3-1-0.4-1.4-0.7c-0.6-0.3-0.7-0.6-0.8-1.3c0-1.2-0.7-2-1.6-2.7c-0.7-0.6-2.6-1.5-2.2-2.6c0.4,0.3,0.8,0.5,1.2,0.6
	c1.9,0.8,4.2,0.4,5.8-0.9c0.1,1.2,0.1,2.4-0.1,3.6c-0.1,0.9,1.4,1.2,1.5,0.2c0.2-1.4,0.2-2.8,0.1-4.2c1,1,2.2,1.7,3.6,2
	c1,0.2,2,0.2,3.1,0.1C39,53.6,38.5,54.3,37.8,54.9z M46.2,47.1c-0.3,0.5-0.4,1.1-0.6,1.6c-0.2,0.7-0.6,0.9-1.3,1.1
	c-1.3,0.4-2.6,0.7-3.9,1.1c-1.3,0.3-2.5,0.6-3.8,0.3c-1.2-0.2-2.3-0.8-3.1-1.7c-1.7-1.7-2.1-4.5-1.2-6.7c0.1-0.1,0.1-0.3,0.1-0.4
	c0,0,0,0,0,0c0.1-0.1,0.2-0.2,0.4-0.3c0.3-0.1,0.6-0.2,0.9-0.3c0.8,0,1.5,0.8,2.2,1.1c0.4,0.2,0.9,0.2,1.3,0
	c0.2-0.1,0.3-0.2,0.5-0.3c0.2-0.1,0.4-0.2,0.6-0.2c0.4-0.1,0.9-0.1,1.3,0c0.4,0.1,0.8,0.4,1.2,0.3c0.7-0.1,1-1,0.8-1.6
	c-0.1-0.5-0.5-0.8-0.8-1.2c-0.1-0.1-0.2-0.2-0.2-0.3c0-0.1,0-0.3,0-0.4c0-0.2,0-0.4,0-0.7c1.4,0.4,2.7,0.7,4.1,1.1
	c1.2,0.3,2.4,0.5,3.6,0.2l0.3,0.6c0,0.1,0.1,0.1,0.1,0.2c0,0,0,0,0,0.1c0.5,1.2,0.5,2.5-0.2,3.6C47.9,45.3,46.8,46,46.2,47.1z
	 M56,42.6c-0.4,0.4-0.6,0.9-0.9,1.4c-0.1,0.2-0.3,0.4-0.5,0.5c-0.3,0.1-0.7-0.1-1-0.1c-1.1,0-1.6,1-2.3,1.7
	c-0.7,0.7-1.8,0.9-2.7,0.4c0.7-0.7,1.4-1.5,1.7-2.5c0.4-1.3,0.3-2.6-0.2-3.8c0-0.1-0.1-0.1-0.1-0.2c1.4,0.1,2.7,0.4,3.9,1.1
	c0.8,0.5,1.4-0.9,0.6-1.4c-1.3-0.7-2.6-1.1-4.1-1.2c0.2-0.2,0.4-0.5,0.6-0.7c0.8-1.1,0.7-2.5,1.2-3.7c0.1-0.2,0.2-0.5,0.3-0.7
	c0.3,0.3,0.6,0.7,0.7,1.1c0.1,0.5,0,1,0.3,1.4c0.2,0.4,0.5,0.6,0.9,0.8c0.4,0.2,0.9,0.2,1.2,0.6c0.3,0.4,0.3,1,0.4,1.4
	c0.1,0.5,0.3,0.9,0.5,1.4c0.3,0.5,0.6,0.9,0.9,1.2C57,41.7,56.5,42.1,56,42.6z"/>
</svg>
