<?xml version="1.0" encoding="utf-8"?>
<!-- Generator: Adobe Illustrator 21.1.0, SVG Export Plug-In . SVG Version: 6.00 Build 0)  -->
<svg version="1.1" id="Layer_1" xmlns="http://www.w3.org/2000/svg" xmlns:xlink="http://www.w3.org/1999/xlink" x="0px" y="0px"
	 viewBox="0 0 215.8 41.1" style="enable-background:new 0 0 215.8 41.1;" xml:space="preserve">
<style type="text/css">
	.st0{fill:#414142;}
</style>
<g>
	<path class="st0" d="M31,21.5c-0.6,1.5-1.2,3-1.2,4.6c0,4.1,3.5,3.5,3.5,4.3c0,0.3-0.3,0.3-0.6,0.3c-1.5,0-3-0.1-4.6-0.1
		c-2.9,0-4.1,0.1-4.9,0.1c-0.3,0-0.5-0.1-0.5-0.4c0-0.5,1-0.3,1.9-0.8c2.5-1.3,3.7-4.3,4.4-6l5-12.3c0.2-0.4,0.3-0.7,0.3-0.9
		c0-1.2-1.8-1.2-1.8-1.5c0-0.5,0.5-0.1,3.4-2.1c2.5-1.7,2.7-3.2,3.1-3.2c0.2,0,0.3,0.2,0.4,0.6l9.2,22.9c1.5,3.6,3.5,2.2,3.5,3.2
		c0,0.3-0.2,0.4-0.7,0.4c-1.1,0-2.5-0.1-6.1-0.1c-3,0-4.9,0.1-6.5,0.1c-0.3,0-0.5-0.2-0.5-0.4c0-1,2.6,0.2,2.6-1.7
		c0-0.3-0.3-1.3-0.7-2.4l-1.8-4.8H31z M34.9,11.7l-3.6,8.8h6.9L34.9,11.7z"/>
	<path class="st0" d="M59.8,28.4c0,1.9,2.2,1.2,2.2,2c0,0.2-0.1,0.4-0.4,0.4c-1.5,0-3.1-0.1-5.1-0.1c-2,0-3.6,0.1-5.1,0.1
		c-0.3,0-0.4-0.2-0.4-0.4c0-0.8,2.2-0.1,2.2-2V7c0-1.9-2.4-1.4-2.4-2.2c0-0.9,2.3,0.1,9-2.4V28.4z"/>
	<path class="st0" d="M67.1,20.6c0.3,3.9,2.4,6.2,5.3,6.2c2.1,0,3.3-0.8,4.3-1.9c0.6-0.8,0.8-1.2,1.1-1.2c0.2,0,0.3,0.2,0.3,0.5
		c0,0.7-1.2,6.8-8.5,6.8c-5.5,0-9.1-3.8-9.1-9c0-5.1,4-9.2,9.4-9.2c4.1,0,7.9,2.6,8,7.8H67.1z M71.9,19.7c0-3.7-0.4-6-2.4-6
		s-2.4,2.2-2.4,6H71.9z"/>
	<path class="st0" d="M82.4,24.7c-0.5,0.9-1.2,2.2-1.2,3.4c0,2.2,2.2,1.7,2.2,2.3c0,0.3-0.2,0.4-0.5,0.4c-1.5,0-2.6-0.1-3.8-0.1
		c-1.2,0-2.3,0.1-3.7,0.1c-0.2,0-0.4-0.2-0.4-0.4c0-0.4,0.5-0.3,1.6-0.8c2.6-1.1,4.5-4.8,6.2-6.9L78.4,16c-1.9-2.9-3-1.9-3-2.6
		c0-0.3,0.2-0.3,0.7-0.3c1.7,0,3.5,0.1,5.3,0.1c1.7,0,3.5-0.1,5.2-0.1c0.4,0,0.6,0.1,0.6,0.3c0,0.7-1.5,0.2-1.5,1.1
		c0,0.2,0.2,0.6,0.5,1l2.1,3.2c0.5-0.7,1.3-2,1.3-3.1c0-2.1-2-1.7-2-2.3c0-0.2,0.1-0.2,0.5-0.2c1.5,0,2.7,0.1,3.8,0.1
		c1.1,0,2.3-0.1,3.4-0.1c0.3,0,0.5,0.1,0.5,0.3c0,0.7-1.7,0-4.6,3.1l-2.6,2.9l6.3,9.4c1,1.5,2.3,1.1,2.3,1.7c0,0.2-0.2,0.3-0.5,0.3
		c-2,0-3.9-0.1-5.8-0.1c-1.9,0-3.8,0.1-5.7,0.1c-0.3,0-0.5-0.1-0.5-0.3c0-0.8,1.8,0.1,1.8-1.4c0-0.5-0.2-1-0.6-1.5l-2.8-4.3
		L82.4,24.7z"/>
	<path class="st0" d="M112.6,27.8c0,2.7,3.2,1.2,3.2,2.5c0,0.3-0.2,0.5-0.6,0.5c-1.5,0-3.7-0.1-6.5-0.1c-2.8,0-5,0.1-6.5,0.1
		c-0.4,0-0.6-0.1-0.6-0.5c0-1.2,3.2,0.2,3.2-2.5V7.3c0-2.7-3.2-1.2-3.2-2.5c0-0.3,0.2-0.5,0.6-0.5c1.5,0,3.7,0.1,6.5,0.1
		c2.9,0,5.1-0.1,7.6-0.1c6.7,0,9.9,3.2,9.9,7.1c0,4.6-3.6,7.6-10.9,7.6h-2.7V27.8z M112.6,18.1h1.2c2.9,0,3.8-1.4,3.8-6.4
		s-0.9-6.4-3.8-6.4h-1.2V18.1z"/>
	<path class="st0" d="M127.1,7c0-1.9-2.4-1.4-2.4-2.2c0-0.9,2.3,0.1,9-2.4v13c2.7-2.1,4.3-2.7,6.4-2.7c3.9,0,4.9,2.4,4.9,5.8v9.8
		c0,1.9,2.2,1.2,2.2,2c0,0.2-0.1,0.4-0.4,0.4c-1.5,0-3.1-0.1-5.1-0.1c-2,0-3.6,0.1-4.8,0.1c-0.3,0-0.4-0.2-0.4-0.4
		c0-0.8,1.9-0.1,1.9-2V17.5c0-1.7-0.9-2.3-1.8-2.3c-1,0-2.1,0.7-2.9,1.5v11.7c0,1.9,1.9,1.2,1.9,2c0,0.2-0.1,0.4-0.4,0.4
		c-1.2,0-2.8-0.1-4.8-0.1c-2,0-3.6,0.1-5.1,0.1c-0.3,0-0.4-0.2-0.4-0.4c0-0.8,2.2-0.1,2.2-2V7z"/>
	<path class="st0" d="M155.3,28.4c0,1.9,2.2,1.2,2.2,2c0,0.2-0.1,0.4-0.4,0.4c-1.5,0-3.1-0.1-5.1-0.1c-2,0-3.6,0.1-5.1,0.1
		c-0.3,0-0.4-0.2-0.4-0.4c0-0.8,2.2-0.1,2.2-2V17.3c0-2.6-2.6-2.2-2.6-2.9c0-0.6,2.4,0.1,9.1-1.6V28.4z"/>
	<path class="st0" d="M165.9,28.4c0,1.9,2.2,1.2,2.2,2c0,0.2-0.1,0.4-0.4,0.4c-1.5,0-3.1-0.1-5.1-0.1c-2,0-3.6,0.1-5.1,0.1
		c-0.3,0-0.4-0.2-0.4-0.4c0-0.8,2.2-0.1,2.2-2V7c0-1.9-2.4-1.4-2.4-2.2c0-0.9,2.3,0.1,9-2.4V28.4z"/>
	<path class="st0" d="M176.6,28.4c0,1.9,2.2,1.2,2.2,2c0,0.2-0.1,0.4-0.4,0.4c-1.5,0-3.1-0.1-5.1-0.1s-3.6,0.1-5.1,0.1
		c-0.3,0-0.4-0.2-0.4-0.4c0-0.8,2.2-0.1,2.2-2V17.3c0-2.6-2.6-2.2-2.6-2.9c0-0.6,2.4,0.1,9.1-1.6V28.4z"/>
	<path class="st0" d="M180.2,17.3c0-2.6-2.6-2.2-2.6-2.9c0-0.6,2.4,0.1,9.1-1.6v2.4c1.6-1.5,3.5-2.4,5.8-2.4c3.8,0,6.8,2.7,6.8,8
		c0,5.9-4.5,10.1-9.8,10.1c-1.1,0-2-0.2-2.9-0.4v5.8c0,1.9,2.2,1.2,2.2,2c0,0.2-0.1,0.4-0.4,0.4c-1.5,0-3.1-0.1-5.1-0.1
		s-3.6,0.1-5.1,0.1c-0.3,0-0.4-0.2-0.4-0.4c0-0.8,2.2-0.1,2.2-2V17.3z M186.8,26.2c0,3.1,1.2,4.1,2.6,4.1c1.7,0,3-1.1,3-8.2
		c0-4.5-1.4-6.9-3.6-6.9c-1,0-1.5,0.4-2,0.9V26.2z"/>
	<path class="st0" d="M155.4,7.6c-0.1,0.1-0.4,0.1-0.5,0.2c-0.7,0.2-1.3,0.7-1.8,1.1c-0.6,0.5-1.1,0.9-1.4,1.6
		c-0.2,0.3-0.3,0.7-0.4,1c-0.1,0.2-0.1,0.8-0.4,0.8c-0.3,0.1-0.4-0.2-0.4-0.4c-0.2-0.8-0.5-1.6-1.1-2.3c-0.4-0.5-0.9-1-1.5-1.3
		c-0.3-0.2-0.6-0.3-0.9-0.4c-0.2-0.1-0.6-0.2-0.8-0.4c0,0-0.1-0.1,0-0.2c0.1-0.2,0.4-0.2,0.6-0.2c0.2-0.1,0.5-0.2,0.7-0.3
		c0.4-0.2,0.8-0.5,1.2-0.8c0.5-0.5,1-1,1.4-1.6c0.2-0.3,0.3-0.6,0.4-1c0.1-0.3,0.1-0.6,0.2-0.9c0.1-0.1,0.2-0.2,0.3-0.1
		c0.3,0,0.4,1.1,0.5,1.3c0.2,0.5,0.4,0.9,0.7,1.3c0.6,0.8,1.3,1.6,2.2,1.9c0.2,0.1,0.4,0.1,0.6,0.2C155.1,7.2,155.4,7.2,155.4,7.6
		C155.4,7.6,155.4,7.6,155.4,7.6z"/>
	<path class="st0" d="M176.7,7.6c-0.1,0.1-0.4,0.1-0.5,0.2c-0.7,0.2-1.3,0.7-1.8,1.1c-0.6,0.5-1.1,0.9-1.4,1.6
		c-0.2,0.3-0.3,0.7-0.4,1c-0.1,0.2-0.1,0.8-0.4,0.8c-0.3,0.1-0.4-0.2-0.4-0.4c-0.2-0.8-0.5-1.6-1.1-2.3c-0.4-0.5-0.9-1-1.5-1.3
		c-0.3-0.2-0.6-0.3-0.9-0.4c-0.2-0.1-0.6-0.2-0.8-0.4c0,0-0.1-0.1,0-0.2c0.1-0.2,0.4-0.2,0.6-0.2c0.2-0.1,0.5-0.2,0.7-0.3
		c0.4-0.2,0.8-0.5,1.2-0.8c0.5-0.5,1-1,1.4-1.6c0.2-0.3,0.3-0.6,0.4-1c0.1-0.3,0.1-0.6,0.2-0.9c0.1-0.1,0.2-0.2,0.3-0.1
		c0.3,0,0.4,1.1,0.5,1.3c0.2,0.5,0.4,0.9,0.7,1.3c0.6,0.8,1.3,1.6,2.2,1.9c0.2,0.1,0.4,0.1,0.6,0.2C176.4,7.2,176.7,7.2,176.7,7.6
		C176.7,7.6,176.7,7.6,176.7,7.6z"/>
</g>
</svg>
