<?xml version="1.0" encoding="utf-8"?>
<!-- Generator: Adobe Illustrator 21.1.0, SVG Export Plug-In . SVG Version: 6.00 Build 0)  -->
<svg version="1.1" id="Layer_1" xmlns="http://www.w3.org/2000/svg" xmlns:xlink="http://www.w3.org/1999/xlink" x="0px" y="0px"
	 viewBox="0 0 103.7 114.3" style="enable-background:new 0 0 103.7 114.3;" xml:space="preserve">
<style type="text/css">
	.st0{fill:#E6E6E5;}
</style>
<g>
	<g>
		<path class="st0" d="M95.5,49.1c-3.1-2.8-7.2-2.6-8-2.6h-4.2v-6.6c0.1-0.9-0.3-1.8-1.2-2.1c-0.5-1.5-1.8-2.6-3.6-2.5
			c-0.6,0-1.1,0.2-1.5,0.5c-0.3-0.9-0.9-1.7-1.9-2.2c-1-0.5-2.1-0.5-3.1-0.3c-0.6-0.5-1.3-0.9-2-1.1c-1.4-0.3-2.8-0.2-4.1,0.3
			c-0.3-0.3-0.6-0.5-1-0.6v-1.6c0-3.7-1.1-6.6-3.3-8.6c-3.1-2.8-7.2-2.6-8-2.6h-4.3v-6.6c0.1-0.9-0.3-1.8-1.2-2.1
			c-0.5-1.5-1.8-2.6-3.6-2.5c-0.6,0-1.1,0.2-1.5,0.5c-0.3-0.9-0.9-1.7-1.9-2.2c-1-0.5-2.1-0.5-3.1-0.3c-0.6-0.5-1.3-0.9-2-1.1
			c-1.4-0.4-2.8-0.2-4.1,0.3c-0.9-0.7-2-1.1-3.2-1c-1,0.1-1.9,0.5-2.6,1.2c-0.4,0-0.7,0-1.1,0c-2-1-4.4-1.2-6.6-0.5
			c-0.9,0.3-1.8,0.8-2.6,1.4c-0.8-0.3-1.7-0.3-2.6,0c-1.1,0.3-2,1-2.5,2c0,0-0.1-0.1-0.1-0.1C9.9,7.4,8.8,7.3,7.9,7.6
			C6,8.3,5.2,10.1,5.2,12.1v68c0,1,9.9,3.8,22.1,3.8c4.3,0,8.4-0.4,11.8-0.9v-7.1c-3.2,0.6-7.3,1.1-11.7,1.1
			c-10.4,0-18.9-2.7-18.9-3.7V16.8h3.9V52h2.7V16.8h31.2v17.1c-0.6,0.4-1.1,0.9-1.4,1.5c0,0-0.1-0.1-0.1-0.1
			c-0.9-0.4-1.9-0.4-2.9-0.1c-1.9,0.6-2.7,2.5-2.7,4.4v36.2c1.2-0.2,2.3-0.5,3.3-0.8V44.4h3.9v35.2H49V44.4h31.2v56.5
			c0,1-8.5,3.7-18.9,3.7c-10.4,0-18.9-2.7-18.9-3.7V82.4c-1,0.2-2.1,0.4-3.3,0.6v24.6c0,1,9.9,3.8,22.1,3.8
			c12.2,0,22.1-2.8,22.1-3.8v-9.4h4.2c0.1,0,0.4,0,0.6,0c1.5,0,4.8-0.3,7.3-2.6c2.2-2,3.3-4.9,3.3-8.6V57.7
			C98.9,54,97.7,51.1,95.5,49.1z M60.1,32.6c-0.4,0-0.7,0-1,0c-2-1-4.4-1.2-6.6-0.5c-0.9,0.3-1.8,0.8-2.6,1.4
			c-0.2-0.1-0.4-0.1-0.5-0.1V23h4.3l0.2,0c0,0,3-0.2,5,1.6c1.3,1.2,1.9,3,1.9,5.5V32C60.6,32.2,60.3,32.4,60.1,32.6z M94.7,87
			c0,2.5-0.6,4.4-1.9,5.5c-2,1.8-4.9,1.6-5,1.6l-4.5,0V50.6h4.3l0.2,0c0,0,3-0.2,5,1.6c1.3,1.2,1.9,3,1.9,5.5V87z"/>
		<path class="st0" d="M39.1,75.9V83c1.2-0.2,2.3-0.4,3.3-0.6v-7.3C41.4,75.4,40.3,75.6,39.1,75.9z"/>
	</g>
</g>
</svg>
