<?xml version="1.0" encoding="utf-8"?>
<!-- Generator: Adobe Illustrator 21.1.0, SVG Export Plug-In . SVG Version: 6.00 Build 0)  -->
<svg version="1.1" id="Layer_1" xmlns="http://www.w3.org/2000/svg" xmlns:xlink="http://www.w3.org/1999/xlink" x="0px" y="0px"
	 viewBox="0 0 448.4 100.6" style="enable-background:new 0 0 448.4 100.6;" xml:space="preserve">
<style type="text/css">
	.st0{fill:#E6E6E5;}
</style>
<g>
	<g>
		<path class="st0" d="M28.4,53.7C27,57.5,25.4,61,25.4,65c0,10.1,8.6,8.6,8.6,10.7c0,0.8-0.7,0.9-1.5,0.9c-3.7,0-7.4-0.2-11.3-0.2
			c-7.2,0-10,0.2-12.2,0.2c-0.8,0-1.1-0.2-1.1-1c0-1.1,2.4-0.8,4.8-2c6.1-3.1,9.2-10.6,10.9-14.7l12.3-30.2c0.4-1,0.7-1.6,0.7-2.1
			c0-2.9-4.4-2.9-4.4-3.7c0-1.1,1.1-0.2,8.5-5.1c6.2-4.2,6.7-7.9,7.6-7.9c0.6,0,0.7,0.6,1,1.4L72,67.7c3.6,8.9,8.7,5.5,8.7,7.9
			c0,0.7-0.5,1-1.8,1c-2.7,0-6.1-0.2-15-0.2c-7.3,0-12.1,0.2-16.1,0.2c-0.9,0-1.2-0.4-1.2-1c0-2.6,6.5,0.6,6.5-4.3
			c0-0.9-0.7-3.1-1.7-5.9l-4.4-11.7H28.4z M38,29.7l-8.8,21.7h17.1L38,29.7z"/>
		<path class="st0" d="M99.4,70.8c0,4.7,5.5,2.9,5.5,4.9c0,0.5-0.2,1-1,1c-3.6,0-7.7-0.2-12.6-0.2c-4.9,0-9,0.2-12.6,0.2
			c-0.9,0-1-0.5-1-1c0-2,5.5-0.2,5.5-4.9V18c0-4.8-5.9-3.5-5.9-5.3c0-2.2,5.7,0.3,22.1-5.9V70.8z"/>
		<path class="st0" d="M117.5,51.6c0.9,9.7,5.9,15.3,13.1,15.3c5.2,0,8.2-1.9,10.5-4.8c1.5-1.9,1.9-3,2.7-3c0.6,0,0.9,0.4,0.9,1.1
			c0,1.8-3,16.9-21,16.9c-13.4,0-22.5-9.3-22.5-22.2c0-12.7,9.8-22.6,23.3-22.6c10.2,0,19.5,6.3,19.6,19.3H117.5z M129.3,49.3
			c0-9.2-1-14.7-6-14.7s-6,5.5-6,14.7H129.3z"/>
		<path class="st0" d="M155.1,61.6c-1.2,2.3-2.9,5.4-2.9,8.3c0,5.5,5.3,4.2,5.3,5.7c0,0.7-0.4,1-1.3,1c-3.6,0-6.5-0.2-9.3-0.2
			c-2.9,0-5.6,0.2-9.2,0.2c-0.6,0-1-0.4-1-1c0-1,1.2-0.7,4-1.9c6.3-2.8,11.2-11.7,15.3-17.1l-10.7-16.5c-4.6-7.1-7.3-4.7-7.3-6.5
			c0-0.7,0.5-0.8,1.7-0.8c4.3,0,8.6,0.2,13,0.2c4.3,0,8.6-0.2,12.9-0.2c1,0,1.4,0.2,1.4,0.8c0,1.7-3.7,0.6-3.7,2.8
			c0,0.6,0.6,1.5,1.1,2.4l5.1,8c1.2-1.8,3.1-4.9,3.1-7.6c0-5.2-4.9-4.1-4.9-5.7c0-0.4,0.3-0.6,1.2-0.6c3.8,0,6.6,0.2,9.4,0.2
			c2.8,0,5.6-0.2,8.4-0.2c0.9,0,1.2,0.2,1.2,0.7c0,1.8-4.3-0.1-11.3,7.6l-6.4,7.2l15.5,23.3c2.6,3.8,5.6,2.8,5.6,4.3
			c0,0.5-0.5,0.7-1.1,0.7c-5.1,0-9.7-0.2-14.4-0.2c-4.8,0-9.4,0.2-14.1,0.2c-0.8,0-1.1-0.3-1.1-0.9c0-1.9,4.4,0.2,4.4-3.5
			c0-1.1-0.6-2.4-1.4-3.6L157,58.1L155.1,61.6z"/>
		<path class="st0" d="M229.7,69.3c0,6.7,8,3.1,8,6.1c0,0.9-0.4,1.1-1.4,1.1c-3.7,0-9.2-0.2-16.1-0.2s-12.4,0.2-16.1,0.2
			c-1,0-1.4-0.3-1.4-1.1c0-3.1,8,0.6,8-6.1V18.8c0-6.7-8-3.1-8-6.1c0-0.9,0.4-1.1,1.4-1.1c3.7,0,9.2,0.2,16.1,0.2
			c7.2,0,12.7-0.2,18.7-0.2c16.6,0,24.3,7.8,24.3,17.5c0,11.4-8.8,18.7-26.9,18.7h-6.6V69.3z M229.7,45.5h3.1
			c7.2,0,9.4-3.5,9.4-15.8s-2.3-15.8-9.4-15.8h-3.1V45.5z"/>
		<path class="st0" d="M265.4,18c0-4.8-5.9-3.5-5.9-5.3c0-2.2,5.7,0.3,22.1-5.9v32.1c6.7-5.1,10.5-6.6,15.7-6.6
			c9.5,0,12.1,5.9,12.1,14.2v24.2c0,4.7,5.5,2.9,5.5,4.9c0,0.5-0.2,1-1,1c-3.6,0-7.7-0.2-12.6-0.2c-4.9,0-9,0.2-11.8,0.2
			c-0.9,0-1-0.5-1-1c0-2,4.8-0.2,4.8-4.9V44c0-4.2-2.2-5.7-4.5-5.7c-2.5,0-5.1,1.8-7.2,3.7v28.8c0,4.7,4.8,2.9,4.8,4.9
			c0,0.5-0.2,1-1,1c-2.9,0-7-0.2-11.8-0.2c-4.9,0-9,0.2-12.6,0.2c-0.9,0-1-0.5-1-1c0-2,5.5-0.2,5.5-4.9V18z"/>
		<path class="st0" d="M334.8,70.8c0,4.7,5.5,2.9,5.5,4.9c0,0.5-0.2,1-1,1c-3.6,0-7.7-0.2-12.6-0.2c-4.9,0-9,0.2-12.6,0.2
			c-0.9,0-1-0.5-1-1c0-2,5.5-0.2,5.5-4.9V43.5c0-6.5-6.3-5.3-6.3-7.2c0-1.5,6,0.2,22.5-4V70.8z"/>
		<path class="st0" d="M361,70.8c0,4.7,5.5,2.9,5.5,4.9c0,0.5-0.2,1-1,1c-3.6,0-7.7-0.2-12.6-0.2c-4.9,0-9,0.2-12.6,0.2
			c-0.9,0-1-0.5-1-1c0-2,5.5-0.2,5.5-4.9V18c0-4.8-5.9-3.5-5.9-5.3c0-2.2,5.7,0.3,22.1-5.9V70.8z"/>
		<path class="st0" d="M387.3,70.8c0,4.7,5.5,2.9,5.5,4.9c0,0.5-0.2,1-1,1c-3.6,0-7.7-0.2-12.6-0.2c-4.9,0-9,0.2-12.6,0.2
			c-0.9,0-1-0.5-1-1c0-2,5.5-0.2,5.5-4.9V43.5c0-6.5-6.3-5.3-6.3-7.2c0-1.5,6,0.2,22.5-4V70.8z"/>
		<path class="st0" d="M396.3,43.5c0-6.5-6.3-5.3-6.3-7.2c0-1.5,6,0.2,22.5-4v5.9c4-3.6,8.6-5.9,14.3-5.9c9.4,0,16.9,6.7,16.9,19.8
			c0,14.5-11.2,25-24.1,25c-2.7,0-5-0.4-7.1-1v14.2c0,4.7,5.5,2.9,5.5,4.9c0,0.5-0.2,1-1,1c-3.6,0-7.7-0.2-12.6-0.2
			c-4.9,0-9,0.2-12.6,0.2c-0.9,0-1-0.5-1-1c0-2,5.5-0.2,5.5-4.9V43.5z M412.5,65.3c0,7.6,2.9,10.1,6.4,10.1c4.2,0,7.4-2.7,7.4-20.1
			c0-11.1-3.5-17.1-8.9-17.1c-2.5,0-3.6,1-5,2.1V65.3z"/>
		<path class="st0" d="M335.1,19.6c-0.3,0.3-1,0.3-1.3,0.4c-1.6,0.4-3.2,1.6-4.5,2.7c-1.5,1.2-2.6,2.3-3.5,4c-0.4,0.8-0.8,1.7-1,2.6
			c-0.1,0.5-0.3,1.9-0.9,2.1c-0.7,0.2-0.9-0.5-1-1c-0.4-2-1.3-3.9-2.6-5.6c-1-1.3-2.2-2.4-3.7-3.3c-0.7-0.4-1.5-0.8-2.2-1.1
			c-0.6-0.2-1.5-0.6-2-1c-0.1-0.1-0.2-0.3-0.1-0.4c0.1-0.4,1.1-0.4,1.5-0.6c0.6-0.2,1.1-0.4,1.7-0.6c1.1-0.5,2-1.2,2.9-2
			c1.4-1.1,2.5-2.5,3.4-4c0.4-0.8,0.8-1.6,1.1-2.4c0.2-0.6,0.2-1.6,0.5-2.2c0.1-0.2,0.4-0.4,0.7-0.3c0.6,0.1,0.9,2.6,1.1,3.2
			c0.5,1.1,1.1,2.2,1.8,3.1c1.4,1.9,3.1,3.9,5.3,4.8c0.5,0.2,1,0.4,1.5,0.5c0.6,0.2,1.5,0.1,1.4,1C335.2,19.4,335.2,19.5,335.1,19.6
			z"/>
		<path class="st0" d="M387.7,19.6c-0.3,0.3-1,0.3-1.3,0.4c-1.6,0.4-3.2,1.6-4.5,2.7c-1.5,1.2-2.6,2.3-3.5,4c-0.4,0.8-0.8,1.7-1,2.6
			c-0.1,0.5-0.3,1.9-0.9,2.1c-0.7,0.2-0.9-0.5-1-1c-0.4-2-1.3-3.9-2.6-5.6c-1-1.3-2.2-2.4-3.7-3.3c-0.7-0.4-1.5-0.8-2.2-1.1
			c-0.6-0.2-1.5-0.6-2-1c-0.1-0.1-0.2-0.3-0.1-0.4c0.1-0.4,1.1-0.4,1.5-0.6c0.6-0.2,1.1-0.4,1.7-0.6c1.1-0.5,2-1.2,2.9-2
			c1.4-1.1,2.5-2.5,3.4-4c0.4-0.8,0.8-1.6,1.1-2.4c0.2-0.6,0.2-1.6,0.5-2.2c0.1-0.2,0.4-0.4,0.7-0.3c0.6,0.1,0.9,2.6,1.1,3.2
			c0.5,1.1,1.1,2.2,1.8,3.1c1.4,1.9,3.1,3.9,5.3,4.8c0.5,0.2,1,0.4,1.5,0.5c0.6,0.2,1.5,0.1,1.4,1C387.7,19.4,387.7,19.5,387.7,19.6
			z"/>
	</g>
</g>
</svg>
